# xmcd
#
# Track frame offsets: 
#        150
#        20940
#        34362
#        48635
#        60672
#        81201
#        94084
#        121845
#        131544
#        144442
#        154960
#        170357
#        182988
#        192899
#        205570
#        217738
#        231044
#        242353
#        254771
#        265331
#        276355
#        288278
#        301777
#
# Disc length: 4190 seconds
#
# Revision: 0
# Processed by: cddbd v1.5.2PL0 Copyright (c) Steve Scherf et al.
# Submitted via: ExactAudioCopyFreeDBPlugin 1.0
#
DISCID=4e105c17
DTITLE=Hank Snow - Milestones Of A Country Legend [CD 3)
DYEAR=1900
DGENRE=Country
TTITLE0=Old Doc Brown (Just a Closer Walk with Thee)
TTITLE1=How to Play the Guitar
TTITLE2=That Pioneer Mother of Mine
TTITLE3=Little Britches
TTITLE4=The Blind Boy
TTITLE5=First Nighters
TTITLE6=What Is a Father
TTITLE7=Trouble, Trouble, Trouble
TTITLE8=The Horse´s Prayer
TTITLE9=What Da I Know Today
TTITLE10=Lazy Bones
TTITLE11=I´m Moving On
TTITLE12=Down the Trail of Achin´ Hearts
TTITLE13=The Rhumba Boogie
TTITLE14=Bluebird Island
TTITLE15=I Don´t Hurt Anymore
TTITLE16=(Now and Then There´s) a Fool Such as I
TTITLE17=The Golden Rocket
TTITLE18=Unwanted Sign upon Your Heart
TTITLE19=Music Makin´ Mama from Memphis
TTITLE20=Marriage Vow
TTITLE21=The Gal Who Invented Kissin´
TTITLE22=With This Ring I Theed Wed
EXTD=
EXTT0=
EXTT1=
EXTT2=
EXTT3=
EXTT4=
EXTT5=
EXTT6=
EXTT7=
EXTT8=
EXTT9=
EXTT10=
EXTT11=
EXTT12=
EXTT13=
EXTT14=
EXTT15=
EXTT16=
EXTT17=
EXTT18=
EXTT19=
EXTT20=
EXTT21=
EXTT22=
PLAYORDER=
